<?xml version="1.0" standalone="no"?>
<!DOCTYPE svg PUBLIC "-//W3C//DTD SVG 20010904//EN"
 "http://www.w3.org/TR/2001/REC-SVG-20010904/DTD/svg10.dtd">
<svg version="1.0" xmlns="http://www.w3.org/2000/svg"
 width="260.000000pt" height="260.000000pt" viewBox="0 0 260.000000 260.000000"
 preserveAspectRatio="xMidYMid meet">
<metadata>
Created by potrace 1.10, written by Peter Selinger 2001-2011
</metadata>
<g transform="translate(0.000000,260.000000) scale(0.100000,-0.100000)"
fill="#000000" stroke="none">
<path d="M979 2560 c-178 -46 -319 -113 -462 -219 -79 -58 -204 -184 -264
-266 -126 -173 -226 -418 -238 -585 -5 -67 4 -62 23 15 34 134 79 270 112 340
183 379 512 628 948 715 34 7 65 17 68 21 10 16 -86 6 -187 -21z"/>
<path d="M1434 2581 c4 -6 17 -11 28 -11 12 0 35 -4 52 -10 17 -5 73 -21 124
-35 121 -33 285 -106 376 -165 76 -50 207 -173 273 -255 129 -161 213 -339
263 -560 27 -122 44 -147 36 -55 -10 117 -65 284 -142 429 -165 311 -453 540
-804 637 -98 28 -216 42 -206 25z"/>
<path d="M1684 2360 c-175 -46 -390 -185 -584 -380 -565 -563 -839 -1400 -549
-1678 58 -57 129 -82 227 -82 99 0 174 19 289 75 419 201 854 732 1031 1261
43 129 63 233 69 360 17 353 -171 526 -483 444z m256 -16 c72 -21 148 -97 180
-179 35 -90 39 -273 10 -415 -77 -376 -314 -794 -630 -1111 -194 -194 -387
-324 -565 -379 -80 -24 -198 -30 -261 -12 -91 26 -167 110 -202 222 -28 89
-23 287 11 422 115 465 455 974 843 1262 100 74 281 169 364 190 74 20 185 19
250 0z"/>
<path d="M1697 1974 c-4 -4 -7 -22 -7 -40 0 -18 -5 -55 -10 -81 -10 -44 -17
-54 -79 -101 -239 -182 -552 -605 -652 -881 -19 -54 -29 -68 -68 -93 -25 -16
-58 -32 -74 -35 -31 -6 -42 -18 -26 -28 15 -10 122 48 205 111 324 246 674
765 722 1069 9 57 4 94 -11 79z m-97 -328 c-77 -161 -154 -284 -283 -451 -75
-97 -349 -374 -354 -358 -4 12 77 186 119 256 102 170 168 261 300 414 86 100
255 259 265 250 2 -3 -19 -53 -47 -111z"/>
<path d="M15 1110 c17 -230 162 -523 354 -719 167 -170 347 -277 586 -346 96
-28 227 -44 210 -26 -5 5 -21 12 -35 15 -176 34 -253 59 -415 137 -104 49
-156 83 -245 159 -64 54 -177 183 -226 257 -85 128 -163 321 -204 503 -19 85
-31 94 -25 20z"/>
<path d="M2569 1128 c-6 -24 -20 -79 -31 -123 -116 -484 -487 -841 -993 -956
-121 -27 -146 -43 -55 -35 125 11 332 83 468 163 297 174 498 438 598 782 23
81 42 211 30 211 -3 0 -10 -19 -17 -42z"/>
</g>
</svg>
